<svg xmlns="http://www.w3.org/2000/svg" xmlns:xlink="http://www.w3.org/1999/xlink" width="794" zoomAndPan="magnify" viewBox="0 0 595.5 842.249979" height="1123" preserveAspectRatio="xMidYMid meet" version="1.0"><defs><clipPath id="7cb80c6652"><path d="M 0.015625 0 L 594.984375 0 L 594.984375 841.5 L 0.015625 841.5 Z M 0.015625 0 " clip-rule="nonzero"/></clipPath><clipPath id="d6dc049b68"><path d="M 31 0 L 33 0 L 33 841.230469 L 31 841.230469 Z M 31 0 " clip-rule="nonzero"/></clipPath><clipPath id="11ae8bffc1"><path d="M 96 0 L 99 0 L 99 841.230469 L 96 841.230469 Z M 96 0 " clip-rule="nonzero"/></clipPath><clipPath id="79a00b9fb3"><path d="M 162 0 L 165 0 L 165 841.230469 L 162 841.230469 Z M 162 0 " clip-rule="nonzero"/></clipPath><clipPath id="8efa08af97"><path d="M 228 0 L 231 0 L 231 841.230469 L 228 841.230469 Z M 228 0 " clip-rule="nonzero"/></clipPath><clipPath id="80d3f0bb52"><path d="M 294 0 L 296 0 L 296 841.230469 L 294 841.230469 Z M 294 0 " clip-rule="nonzero"/></clipPath><clipPath id="48e684a75e"><path d="M 359 0 L 362 0 L 362 841.230469 L 359 841.230469 Z M 359 0 " clip-rule="nonzero"/></clipPath><clipPath id="900908ee38"><path d="M 425 0 L 428 0 L 428 841.230469 L 425 841.230469 Z M 425 0 " clip-rule="nonzero"/></clipPath><clipPath id="504cd88647"><path d="M 491 0 L 494 0 L 494 841.230469 L 491 841.230469 Z M 491 0 " clip-rule="nonzero"/></clipPath><clipPath id="62b503fd3a"><path d="M 557 0 L 559 0 L 559 841.230469 L 557 841.230469 Z M 557 0 " clip-rule="nonzero"/></clipPath><clipPath id="94aa7d5ff7"><path d="M 0.015625 49 L 594.984375 49 L 594.984375 52 L 0.015625 52 Z M 0.015625 49 " clip-rule="nonzero"/></clipPath><clipPath id="57b6525f94"><path d="M 0.015625 115 L 594.984375 115 L 594.984375 117 L 0.015625 117 Z M 0.015625 115 " clip-rule="nonzero"/></clipPath><clipPath id="f3061cea18"><path d="M 0.015625 180 L 594.984375 180 L 594.984375 183 L 0.015625 183 Z M 0.015625 180 " clip-rule="nonzero"/></clipPath><clipPath id="c8d197b6c4"><path d="M 0.015625 246 L 594.984375 246 L 594.984375 249 L 0.015625 249 Z M 0.015625 246 " clip-rule="nonzero"/></clipPath><clipPath id="2eea3ee1ba"><path d="M 0.015625 312 L 594.984375 312 L 594.984375 315 L 0.015625 315 Z M 0.015625 312 " clip-rule="nonzero"/></clipPath><clipPath id="8a5d0fab3e"><path d="M 0.015625 378 L 594.984375 378 L 594.984375 380 L 0.015625 380 Z M 0.015625 378 " clip-rule="nonzero"/></clipPath><clipPath id="b8a9006bcc"><path d="M 0.015625 443 L 594.984375 443 L 594.984375 446 L 0.015625 446 Z M 0.015625 443 " clip-rule="nonzero"/></clipPath><clipPath id="ddbd20933b"><path d="M 0.015625 509 L 594.984375 509 L 594.984375 512 L 0.015625 512 Z M 0.015625 509 " clip-rule="nonzero"/></clipPath><clipPath id="99faf3a1e2"><path d="M 0.015625 575 L 594.984375 575 L 594.984375 578 L 0.015625 578 Z M 0.015625 575 " clip-rule="nonzero"/></clipPath><clipPath id="99adc31e38"><path d="M 0.015625 641 L 594.984375 641 L 594.984375 643 L 0.015625 643 Z M 0.015625 641 " clip-rule="nonzero"/></clipPath><clipPath id="8dedefe94f"><path d="M 0.015625 706 L 594.984375 706 L 594.984375 709 L 0.015625 709 Z M 0.015625 706 " clip-rule="nonzero"/></clipPath><clipPath id="8523878e3f"><path d="M 0.015625 772 L 594.984375 772 L 594.984375 775 L 0.015625 775 Z M 0.015625 772 " clip-rule="nonzero"/></clipPath></defs><g clip-path="url(#7cb80c6652)"><path fill="#ffffff" d="M 0.015625 0 L 594.984375 0 L 594.984375 841.5 L 0.015625 841.5 Z M 0.015625 0 " fill-opacity="1" fill-rule="nonzero"/><path fill="#ffffff" d="M 0.015625 0 L 594.984375 0 L 594.984375 841.5 L 0.015625 841.5 Z M 0.015625 0 " fill-opacity="1" fill-rule="nonzero"/></g><g clip-path="url(#d6dc049b68)"><path fill="#231f20" d="M 31.042969 -17.503906 L 32.761719 -17.503906 L 32.761719 841.230469 L 31.042969 841.230469 Z M 31.042969 -17.503906 " fill-opacity="1" fill-rule="nonzero"/></g><g clip-path="url(#11ae8bffc1)"><path fill="#231f20" d="M 96.808594 -17.503906 L 98.523438 -17.503906 L 98.523438 841.230469 L 96.808594 841.230469 Z M 96.808594 -17.503906 " fill-opacity="1" fill-rule="nonzero"/></g><g clip-path="url(#79a00b9fb3)"><path fill="#231f20" d="M 162.550781 -17.503906 L 164.269531 -17.503906 L 164.269531 841.230469 L 162.550781 841.230469 Z M 162.550781 -17.503906 " fill-opacity="1" fill-rule="nonzero"/></g><g clip-path="url(#8efa08af97)"><path fill="#231f20" d="M 228.296875 -17.503906 L 230.015625 -17.503906 L 230.015625 841.230469 L 228.296875 841.230469 Z M 228.296875 -17.503906 " fill-opacity="1" fill-rule="nonzero"/></g><g clip-path="url(#80d3f0bb52)"><path fill="#231f20" d="M 294.058594 -17.503906 L 295.777344 -17.503906 L 295.777344 841.230469 L 294.058594 841.230469 Z M 294.058594 -17.503906 " fill-opacity="1" fill-rule="nonzero"/></g><g clip-path="url(#48e684a75e)"><path fill="#231f20" d="M 359.804688 -17.503906 L 361.519531 -17.503906 L 361.519531 841.230469 L 359.804688 841.230469 Z M 359.804688 -17.503906 " fill-opacity="1" fill-rule="nonzero"/></g><g clip-path="url(#900908ee38)"><path fill="#231f20" d="M 425.566406 -17.503906 L 427.28125 -17.503906 L 427.28125 841.230469 L 425.566406 841.230469 Z M 425.566406 -17.503906 " fill-opacity="1" fill-rule="nonzero"/></g><g clip-path="url(#504cd88647)"><path fill="#231f20" d="M 491.308594 -17.503906 L 493.027344 -17.503906 L 493.027344 841.230469 L 491.308594 841.230469 Z M 491.308594 -17.503906 " fill-opacity="1" fill-rule="nonzero"/></g><g clip-path="url(#62b503fd3a)"><path fill="#231f20" d="M 557.054688 -17.503906 L 558.773438 -17.503906 L 558.773438 841.230469 L 557.054688 841.230469 Z M 557.054688 -17.503906 " fill-opacity="1" fill-rule="nonzero"/></g><g clip-path="url(#94aa7d5ff7)"><path fill="#231f20" d="M -101.578125 49.375 L 757.15625 49.375 L 757.15625 51.09375 L -101.578125 51.09375 Z M -101.578125 49.375 " fill-opacity="1" fill-rule="nonzero"/></g><g clip-path="url(#57b6525f94)"><path fill="#231f20" d="M -101.578125 115.121094 L 757.15625 115.121094 L 757.15625 116.835938 L -101.578125 116.835938 Z M -101.578125 115.121094 " fill-opacity="1" fill-rule="nonzero"/></g><g clip-path="url(#f3061cea18)"><path fill="#231f20" d="M -101.578125 180.882812 L 757.15625 180.882812 L 757.15625 182.597656 L -101.578125 182.597656 Z M -101.578125 180.882812 " fill-opacity="1" fill-rule="nonzero"/></g><g clip-path="url(#c8d197b6c4)"><path fill="#231f20" d="M -101.578125 246.625 L 757.15625 246.625 L 757.15625 248.34375 L -101.578125 248.34375 Z M -101.578125 246.625 " fill-opacity="1" fill-rule="nonzero"/></g><g clip-path="url(#2eea3ee1ba)"><path fill="#231f20" d="M -101.578125 312.371094 L 757.15625 312.371094 L 757.15625 314.089844 L -101.578125 314.089844 Z M -101.578125 312.371094 " fill-opacity="1" fill-rule="nonzero"/></g><g clip-path="url(#8a5d0fab3e)"><path fill="#231f20" d="M -101.578125 378.132812 L 757.15625 378.132812 L 757.15625 379.851562 L -101.578125 379.851562 Z M -101.578125 378.132812 " fill-opacity="1" fill-rule="nonzero"/></g><g clip-path="url(#b8a9006bcc)"><path fill="#231f20" d="M -101.578125 443.878906 L 757.15625 443.878906 L 757.15625 445.59375 L -101.578125 445.59375 Z M -101.578125 443.878906 " fill-opacity="1" fill-rule="nonzero"/></g><g clip-path="url(#ddbd20933b)"><path fill="#231f20" d="M -101.578125 509.640625 L 757.15625 509.640625 L 757.15625 511.359375 L -101.578125 511.359375 Z M -101.578125 509.640625 " fill-opacity="1" fill-rule="nonzero"/></g><g clip-path="url(#99faf3a1e2)"><path fill="#231f20" d="M -101.578125 575.386719 L 757.15625 575.386719 L 757.15625 577.101562 L -101.578125 577.101562 Z M -101.578125 575.386719 " fill-opacity="1" fill-rule="nonzero"/></g><g clip-path="url(#99adc31e38)"><path fill="#231f20" d="M -101.578125 641.128906 L 757.15625 641.128906 L 757.15625 642.847656 L -101.578125 642.847656 Z M -101.578125 641.128906 " fill-opacity="1" fill-rule="nonzero"/></g><g clip-path="url(#8dedefe94f)"><path fill="#231f20" d="M -101.578125 706.890625 L 757.15625 706.890625 L 757.15625 708.609375 L -101.578125 708.609375 Z M -101.578125 706.890625 " fill-opacity="1" fill-rule="nonzero"/></g><g clip-path="url(#8523878e3f)"><path fill="#231f20" d="M -101.578125 772.636719 L 757.15625 772.636719 L 757.15625 774.355469 L -101.578125 774.355469 Z M -101.578125 772.636719 " fill-opacity="1" fill-rule="nonzero"/></g></svg>